<svg
        id="logout"
        style="margin-right: -4px"
        width="16.999756"
        height="20.002319"
        viewBox="0 0 16.9998 20.0023"
        fill="none"
        xmlns="http://www.w3.org/2000/svg"
>
    <defs />
    <path
            id="Vector 13 (Stroke)"
            d="M10.29 4.97C10.73 4.54 11.43 4.54 11.87 4.97L16.99 10L11.87 15.02C11.43 15.45 10.73 15.45 10.29 15.02C9.86 14.6 9.86 13.9 10.29 13.48L12.73 11.09L5.57 11.09C4.95 11.09 4.45 10.6 4.45 10C4.45 9.39 4.95 8.9 5.57 8.9L12.73 8.9L10.29 6.52C9.86 6.09 9.86 5.4 10.29 4.97Z"
            fill="#AFAFAF"
            fill-opacity="1.000000"
            fill-rule="evenodd"
    />
    <path
            id="Rectangle 47 (Stroke)"
            d="M3.34 0C1.49 0 0 1.46 0 3.28L0 16.72C0 18.53 1.49 20 3.34 20L4.48 20C5.08 20 5.57 19.51 5.57 18.9C5.57 18.3 5.08 17.81 4.48 17.81L3.34 17.81C2.72 17.81 2.22 17.32 2.22 16.72L2.22 3.28C2.22 2.67 2.72 2.18 3.34 2.18L4.48 2.18C5.08 2.18 5.57 1.69 5.57 1.09C5.57 0.48 5.08 0 4.48 0L3.34 0Z"
            fill="#AFAFAF"
            fill-opacity="1.000000"
            fill-rule="evenodd"
    />
</svg>